<svg width="15" height="15" viewBox="0 0 15 15" fill="none" xmlns="http://www.w3.org/2000/svg">
<path d="M12.4375 8.4375H2.5625C1.625 8.4375 1.25 8.8375 1.25 9.83125V12.3563C1.25 13.35 1.625 13.75 2.5625 13.75H12.4375C13.375 13.75 13.75 13.35 13.75 12.3563V9.83125C13.75 8.8375 13.375 8.4375 12.4375 8.4375Z" stroke="#06113C" stroke-width="1.5" stroke-linecap="round" stroke-linejoin="round"/>
<path d="M12.4375 1.25H2.5625C1.625 1.25 1.25 1.65 1.25 2.64375V5.16875C1.25 6.1625 1.625 6.5625 2.5625 6.5625H12.4375C13.375 6.5625 13.75 6.1625 13.75 5.16875V2.64375C13.75 1.65 13.375 1.25 12.4375 1.25Z" stroke="#06113C" stroke-width="1.5" stroke-linecap="round" stroke-linejoin="round"/>
</svg>
