<svg width="24" height="24" viewBox="0 0 24 24" fill="none" xmlns="http://www.w3.org/2000/svg">
<path d="M6.28 22.75C4.15 22.75 2.41 21.01 2.41 18.88C2.41 16.75 4.15 15.01 6.28 15.01C8.41 15.01 10.15 16.75 10.15 18.88C10.15 21.01 8.41 22.75 6.28 22.75ZM6.28 16.51C4.97 16.51 3.91 17.57 3.91 18.88C3.91 20.19 4.97 21.25 6.28 21.25C7.59 21.25 8.65 20.19 8.65 18.88C8.65 17.57 7.59 16.51 6.28 16.51Z" fill="white"/>
<path d="M9.39999 19.63C8.98999 19.63 8.64999 19.29 8.64999 18.88V6.30001C8.64999 4.72001 9.59999 3.48001 11.12 3.07001L17.36 1.37001C18.63 1.02001 19.7 1.15001 20.45 1.73001C21.21 2.31001 21.59 3.28001 21.59 4.61001V16.81C21.59 17.22 21.25 17.56 20.84 17.56C20.43 17.56 20.09 17.22 20.09 16.81V4.60001C20.09 4.02001 19.99 3.26001 19.54 2.92001C19.05 2.54001 18.21 2.69001 17.75 2.82001L11.51 4.52001C10.64 4.76001 10.15 5.41001 10.15 6.31001V18.89C10.15 19.29 9.80999 19.63 9.39999 19.63Z" fill="white"/>
<path d="M17.72 20.67C15.59 20.67 13.85 18.93 13.85 16.8C13.85 14.67 15.59 12.93 17.72 12.93C19.85 12.93 21.59 14.67 21.59 16.8C21.59 18.93 19.85 20.67 17.72 20.67ZM17.72 14.43C16.41 14.43 15.35 15.49 15.35 16.8C15.35 18.11 16.41 19.17 17.72 19.17C19.03 19.17 20.09 18.11 20.09 16.8C20.09 15.49 19.03 14.43 17.72 14.43Z" fill="white"/>
<path d="M9.39998 10.27C9.06998 10.27 8.76999 10.05 8.67999 9.72C8.56999 9.32 8.79998 8.9 9.19998 8.79L20.64 5.67C21.04 5.56 21.45 5.8 21.56 6.2C21.67 6.6 21.43 7.01 21.03 7.12L9.59999 10.24C9.52999 10.26 9.45998 10.27 9.39998 10.27Z" fill="white"/>
</svg>
